<!-- Generator: Adobe Illustrator 21.0.0, SVG Export Plug-In  -->
<svg version="1.1"
	 xmlns="http://www.w3.org/2000/svg" xmlns:xlink="http://www.w3.org/1999/xlink" xmlns:a="http://ns.adobe.com/AdobeSVGViewerExtensions/3.0/"
	 x="0px" y="0px" width="46.6px" height="40.8px" viewBox="0 0 46.6 40.8" style="enable-background:new 0 0 46.6 40.8;"
	 xml:space="preserve">
<style type="text/css">
	.st0{fill:#FFFFFF;}
	.st1{fill:none;}
</style>
<defs>
</defs>
<g>
	<path class="st0" d="M46.6,2.9c0-1.6-1.3-2.9-2.9-2.9H2.9C1.3,0,0,1.3,0,2.9v34.9c0,1.6,1.3,2.9,2.9,2.9h40.7
		c1.6,0,2.9-1.3,2.9-2.9V2.9z M43.4,3.1v26.4l-8.4-8.7c-0.6-0.6-1.3-0.6-1.9-0.1l-5.5,4.8L15.6,13.6c-0.3-0.3-0.6-0.4-1-0.6
		c-0.4,0-0.7,0.1-1,0.4L3.1,23.7V3.1H43.4z M3.1,37.6v-9.8l11.4-11.3l12.1,12.1c0.4,0.6,1.3,0.6,2,0l5.4-4.8l9.4,9.9
		c0,0,0.1,0.1,0.1,0.1v3.9H3.1z M30.6,11.7c0,1.6,1.3,2.9,2.9,2.9c1.6,0,2.9-1.3,2.9-2.9c0-1.6-1.3-2.9-2.9-2.9
		C31.9,8.8,30.6,10.1,30.6,11.7L30.6,11.7z M30.6,11.7"/>
	<rect id="SVGID_2_" x="0" class="st1" width="46.6" height="40.8"/>
</g>
</svg>
