<!-- Generator: Adobe Illustrator 21.0.0, SVG Export Plug-In  -->
<svg version="1.1"
	 xmlns="http://www.w3.org/2000/svg" xmlns:xlink="http://www.w3.org/1999/xlink" xmlns:a="http://ns.adobe.com/AdobeSVGViewerExtensions/3.0/"
	 x="0px" y="0px" width="44.6px" height="34px" viewBox="0 0 44.6 34" style="enable-background:new 0 0 44.6 34;"
	 xml:space="preserve">
<style type="text/css">
	.st0{fill:#FFFFFF;}
	.st1{fill:none;}
</style>
<defs>
</defs>
<g>
	<path class="st0" d="M43.8,10.6L24,0.5c-1.2-0.6-2.6-0.6-3.7,0L0.8,10.6C0.3,10.9,0,11.4,0,11.9c0,0.5,0.3,1,0.8,1.3l1.9,1v9.6
		c-0.7,0.4-1.2,1.2-1.2,2.1c0,1.3,1.1,2.4,2.4,2.4c1.3,0,2.4-1.1,2.4-2.4c0-0.9-0.5-1.7-1.2-2.1v-8.4l5.2,2.7v10.5
		c0,1.3,0.8,2.4,2,2.8l6.2,2c1.3,0.4,2.6,0.6,3.9,0.6c1.3,0,2.5-0.2,3.7-0.6l6.6-2c1.2-0.4,2.1-1.5,2.1-2.8l0-10.7l9.1-4.7
		c0.5-0.3,0.8-0.7,0.8-1.3C44.6,11.4,44.3,10.9,43.8,10.6L43.8,10.6z M32.3,28.6c0,0.3-0.2,0.5-0.4,0.6l-6.6,2c-2,0.6-4.2,0.6-6.2,0
		l-6.2-2c-0.2-0.1-0.4-0.3-0.4-0.6v-9.3l7.8,4.1c0.6,0.3,1.2,0.5,1.9,0.5c0.6,0,1.3-0.1,1.9-0.5l8.4-4.3L32.3,28.6z M23,21.3
		c-0.5,0.3-1.1,0.3-1.6,0l-18-9.4l18-9.4c0.5-0.3,1.1-0.3,1.6,0l18.3,9.4L23,21.3z M23,21.3"/>
	<rect id="SVGID_1_" class="st1" width="44.6" height="34"/>
</g>
</svg>
