<!-- Generator: Adobe Illustrator 21.0.0, SVG Export Plug-In  -->
<svg version="1.1"
	 xmlns="http://www.w3.org/2000/svg" xmlns:xlink="http://www.w3.org/1999/xlink" xmlns:a="http://ns.adobe.com/AdobeSVGViewerExtensions/3.0/"
	 x="0px" y="0px" width="40.9px" height="40.9px" viewBox="0 0 40.9 40.9" style="enable-background:new 0 0 40.9 40.9;"
	 xml:space="preserve">
<style type="text/css">
	.st0{fill:#FFFFFF;}
</style>
<defs>
</defs>
<g>
	<path class="st0" d="M40.9,20.4c0-0.8-0.7-1.5-1.5-1.5c-0.8,0-1.5,0.7-1.5,1.5l0,0c0,9.7-7.8,17.5-17.5,17.5
		c-9.7,0-17.5-7.8-17.5-17.5c0-9.7,7.8-17.5,17.5-17.5c5.9,0,11.1,2.9,14.2,7.3l-2.6,0c-0.8,0-1.5,0.7-1.5,1.5
		c0,0.8,0.7,1.5,1.5,1.5l5.1,0c0.8,0,1.5-0.7,1.5-1.5l0-6.6c0-0.8-0.7-1.5-1.5-1.5c-0.8,0-1.5,0.7-1.5,1.5l0,1.8
		C32,2.7,26.5,0,20.4,0C9.1,0,0,9.2,0,20.5c0,11.3,9.2,20.4,20.5,20.4C31.7,40.9,40.9,31.7,40.9,20.4L40.9,20.4z M40.9,20.4"/>
	<path class="st0" d="M29.9,21.9c0-0.8-0.7-1.5-1.5-1.5l-8,0l0-8c0-0.8-0.7-1.5-1.5-1.5c-0.8,0-1.5,0.7-1.5,1.5l0,9.5
		c0,0.8,0.7,1.5,1.5,1.5l9.5,0C29.3,23.3,29.9,22.7,29.9,21.9L29.9,21.9z M29.9,21.9"/>
</g>
</svg>
