<!-- Generator: Adobe Illustrator 21.0.0, SVG Export Plug-In  -->
<svg version="1.1"
	 xmlns="http://www.w3.org/2000/svg" xmlns:xlink="http://www.w3.org/1999/xlink" xmlns:a="http://ns.adobe.com/AdobeSVGViewerExtensions/3.0/"
	 x="0px" y="0px" width="37.3px" height="36.6px" viewBox="0 0 37.3 36.6" style="enable-background:new 0 0 37.3 36.6;"
	 xml:space="preserve">
<style type="text/css">
	.st0{fill:#FFFFFF;}
</style>
<defs>
</defs>
<path class="st0" d="M18.7,0L9.5,9.1H3c-1.7,0-3,1.4-3,3v12.2c0,1.7,1.4,3,3,3h6.5l9.1,9.1c1.7,0,3-1.4,3-3V3
	C21.7,1.4,20.4,0,18.7,0L18.7,0z M18.7,33.4l-8-8.8H3V12.4h7.6l8-8.8V33.4L18.7,33.4z M36.7,19.6c0.3,0,0.5-0.6,0.5-1.3
	c0-0.7-0.2-1.3-0.5-1.3h-3.8c-0.3,0-0.5,0.6-0.5,1.3c0,0.7,0.2,1.3,0.5,1.3H36.7z M37.2,2.3c0.3-0.2,0.2-0.8-0.2-1.4
	c-0.4-0.6-0.9-1-1.1-0.9l-3.3,1.9c-0.3,0.2-0.2,0.8,0.2,1.4c0.4,0.6,0.9,1,1.1,0.9L37.2,2.3z M37.2,34.2c0.3,0.2,0.2,0.8-0.2,1.4
	c-0.4,0.6-0.9,1-1.1,0.9l-3.3-1.9c-0.3-0.2-0.2-0.8,0.2-1.4c0.4-0.6,0.9-1,1.1-0.9L37.2,34.2z M23.9,25.1c-0.3-0.7-0.2-1.4,0.5-1.7
	c1.8-0.9,2.7-2.5,3-4.6c0.3-2.4-0.9-4.7-2.9-5.6c-0.7-0.4-0.9-1.2-0.5-1.8c0.4-0.7,1.2-0.9,1.8-0.5c3,1.7,4.8,4.7,4.4,8.2
	c-0.3,2.8-2,5.4-4.6,6.5C25,26,24.2,25.8,23.9,25.1L23.9,25.1z M23.9,25.1"/>
</svg>
