<!-- Generator: Adobe Illustrator 21.0.0, SVG Export Plug-In  -->
<svg version="1.1"
	 xmlns="http://www.w3.org/2000/svg" xmlns:xlink="http://www.w3.org/1999/xlink" xmlns:a="http://ns.adobe.com/AdobeSVGViewerExtensions/3.0/"
	 x="0px" y="0px" width="73px" height="73px" viewBox="0 0 73 73" style="enable-background:new 0 0 73 73;" xml:space="preserve">
<style type="text/css">
	.st0{fill:#FFFFFF;}
</style>
<defs>
</defs>
<g>
	<path class="st0" d="M45.9,16.2c2.3-0.9,4.8-1.3,7.3-1.3c2.6,0,5.1,0.5,7.5,1.4c0-0.5,0.1-1,0.1-1.5C60.8,6.6,54.2,0,46,0
		c-4.3,0-8.2,1.8-10.9,4.8c2.3,1.3,4.4,2.9,6.3,4.9C43.2,11.6,44.7,13.8,45.9,16.2L45.9,16.2z M46,3.9c4.7,0,8.8,3,10.3,7.2
		c-1-0.1-2-0.2-3.1-0.2c-1.8,0-3.7,0.2-5.5,0.6c-1-1.6-2.2-3.2-3.6-4.6c-0.8-0.8-1.5-1.5-2.4-2.3C43.2,4.2,44.6,3.9,46,3.9L46,3.9z
		 M46,3.9"/>
	<path class="st0" d="M24.7,58.1h4.6l-1.8-5.2c10.9-2.1,19.2-12.2,19.2-24.3C46.7,15,36.2,3.9,23.3,3.9C10.4,3.9,0,15,0,28.6
		c0,12,8.1,22.1,18.9,24.3l-1.5,5.2h4l-0.7,2.2c-0.4,1.4,0,2.9,1.1,4c0.5,0.5,0.6,1.1,0.2,1.7l-3,4.8c-0.4,0.7-0.2,1.6,0.6,1.9
		c0.3,0.1,0.5,0.2,0.8,0.2c0.6,0,1.1-0.3,1.4-0.7l3-4.8c1-1.6,0.8-3.6-0.7-5c-0.4-0.4-0.5-0.9-0.4-1.4L24.7,58.1z M22.5,54.4
		l0.1-0.4c0.3-1.1,0.2-2.2-0.4-3.1c-0.6-0.9-1.5-1.6-2.6-1.8C10.6,47.2,3.9,38.6,3.9,28.6c0-11.5,8.7-20.8,19.4-20.8
		c10.7,0,19.4,9.3,19.4,20.8c0,10.1-6.7,18.7-16,20.5c-1.1,0.2-2.1,0.9-2.7,1.9c-0.6,1-0.7,2.2-0.3,3.3l0,0.1L22.5,54.4z M22.5,54.4
		"/>
	<path class="st0" d="M73,38c0-11.6-8.9-21-19.8-21c-2.3,0-4.4,0.4-6.4,1.1c1.3,3.3,2,6.8,2,10.5c0,7.2-2.6,13.9-7.4,18.9
		c-1.2,1.2-2.4,2.3-3.8,3.3c2.9,3.9,7,6.7,11.7,7.7l-0.7,3.3h2.1v0l-0.2,0.6c-0.1,0.3-0.1,0.6-0.1,0.9c0,0.9,0.4,1.7,1,2.3
		c0.1,0.1,0.2,0.2,0.2,0.3c0,0.1,0,0.2-0.1,0.4l-2.1,3.3c-0.3,0.4-0.2,0.9,0,1.3c0.1,0.3,0.3,0.5,0.6,0.6c0.3,0.1,0.5,0.2,0.8,0.2
		c0.6,0,1.1-0.3,1.4-0.7l2.1-3.4c0.5-0.8,0.6-1.6,0.4-2.5c-0.1-0.6-0.4-1.1-0.9-1.5c-0.1-0.1-0.1-0.2-0.2-0.3c0-0.1,0-0.2,0-0.3
		l0.4-1.3h2l-0.8-3C65.1,57.9,73,48.9,73,38L73,38z M54.7,55c-0.9,0.1-1.7,0.5-2.4,1.1c-0.6-0.7-1.3-1.2-2.2-1.4
		c-2.5-0.5-4.9-1.8-6.9-3.5c0.3-0.3,0.7-0.7,1-1c5.5-5.8,8.5-13.5,8.5-21.6c0-2.6-0.3-5.2-0.9-7.7c0.5,0,1-0.1,1.4-0.1
		c8.8,0,15.9,7.7,15.9,17.1C69.1,46.9,62.9,54.2,54.7,55L54.7,55z M20.3,10.1c-0.5,0.1-4.6,1.1-8.3,4.2c-3.7,3.1-7.8,8.8-5.7,18.1
		c0.2,0.9,1,1.5,1.9,1.5c0.1,0,0.3,0,0.4,0c1.1-0.2,1.7-1.3,1.5-2.3c-1.3-5.9,0.2-10.7,4.4-14.2c3.1-2.6,6.7-3.4,6.7-3.4
		c1.1-0.2,1.7-1.3,1.5-2.3C22.4,10.5,21.3,9.8,20.3,10.1L20.3,10.1z M20.3,10.1"/>
	<path class="st0" d="M65.8,39.3c-1-0.3-2.1,0.4-2.3,1.5c-0.8,3.4-3.4,6.3-6.9,7.8c-1,0.4-1.5,1.6-1,2.6c0.3,0.7,1,1.2,1.8,1.2
		c0.3,0,0.5,0,0.8-0.2c4.7-2,8.2-5.9,9.2-10.5C67.5,40.6,66.9,39.5,65.8,39.3L65.8,39.3z M65.8,39.3"/>
</g>
</svg>
